<svg display="none" xmlns="http://www.w3.org/2000/svg">
    <symbol viewBox="0 0 512 512"   id="logotype">
        <g><g><path d="M256,48C141.1,48,48,141.1,48,256s93.1,208,208,208c114.9,0,208-93.1,208-208S370.9,48,256,48z M256,446.7    c-105.1,0-190.7-85.5-190.7-190.7c0-105.1,85.5-190.7,190.7-190.7c105.1,0,190.7,85.5,190.7,190.7    C446.7,361.1,361.1,446.7,256,446.7z"/></g></g>
    </symbol>

    <symbol viewBox="0 0 512 512" id="telegram">
        <path d="M256,0C114.615,0,0,114.615,0,256S114.615,512,256,512,512,397.385,512,256,397.385,0,256,0ZM389.059,161.936,343.591,379a16.007,16.007,0,0,1-25.177,9.593l-66.136-48.861-40.068,37.8a5.429,5.429,0,0,1-7.74-.294l-.861-.946,6.962-67.375L336.055,194.266a3.358,3.358,0,0,0-4.061-5.317L171.515,290.519,102.4,267.307a9.393,9.393,0,0,1-.32-17.694L372.5,147.744A12.441,12.441,0,0,1,389.059,161.936Z"/>
    </symbol>

    <symbol viewBox="0 0 512 512" id="instagram">
        <g><path d="M256,0c-69.526,0 -78.244,0.295 -105.549,1.541c-27.248,1.243 -45.858,5.57 -62.142,11.899c-16.834,6.542 -31.111,15.296 -45.342,29.528c-14.232,14.231 -22.986,28.508 -29.528,45.342c-6.329,16.283 -10.656,34.893 -11.899,62.141c-1.246,27.305 -1.54,36.023 -1.54,105.549c0,69.524 0.294,78.242 1.54,105.547c1.243,27.248 5.57,45.858 11.899,62.141c6.542,16.834 15.296,31.111 29.528,45.344c14.231,14.231 28.508,22.985 45.342,29.527c16.284,6.328 34.894,10.656 62.142,11.899c27.305,1.245 36.023,1.54 105.549,1.54c69.524,0 78.242,-0.295 105.547,-1.54c27.248,-1.243 45.858,-5.571 62.141,-11.899c16.834,-6.542 31.111,-15.296 45.344,-29.527c14.231,-14.233 22.985,-28.51 29.527,-45.344c6.328,-16.283 10.656,-34.893 11.899,-62.141c1.245,-27.305 1.54,-36.023 1.54,-105.547c0,-69.526 -0.295,-78.244 -1.54,-105.549c-1.243,-27.248 -5.571,-45.858 -11.899,-62.141c-6.542,-16.834 -15.296,-31.111 -29.527,-45.342c-14.233,-14.232 -28.51,-22.986 -45.344,-29.528c-16.283,-6.329 -34.893,-10.656 -62.141,-11.899c-27.305,-1.246 -36.023,-1.541 -105.547,-1.541Zm0,46.127c68.354,0 76.451,0.26 103.445,1.492c24.959,1.139 38.514,5.309 47.535,8.814c11.949,4.644 20.477,10.192 29.435,19.15c8.959,8.958 14.506,17.487 19.15,29.435c3.506,9.021 7.676,22.576 8.815,47.535c1.231,26.995 1.492,35.092 1.492,103.447c0,68.354 -0.261,76.451 -1.492,103.445c-1.139,24.959 -5.309,38.514 -8.815,47.535c-4.644,11.949 -10.191,20.477 -19.15,29.435c-8.958,8.959 -17.486,14.506 -29.435,19.15c-9.021,3.506 -22.576,7.676 -47.535,8.814c-26.99,1.232 -35.086,1.493 -103.445,1.493c-68.361,0 -76.455,-0.261 -103.447,-1.493c-24.959,-1.138 -38.514,-5.308 -47.535,-8.814c-11.949,-4.644 -20.477,-10.191 -29.436,-19.15c-8.958,-8.958 -14.506,-17.486 -19.149,-29.435c-3.506,-9.021 -7.676,-22.576 -8.815,-47.535c-1.232,-26.994 -1.492,-35.091 -1.492,-103.445c0,-68.355 0.26,-76.452 1.492,-103.447c1.139,-24.959 5.309,-38.514 8.815,-47.535c4.643,-11.948 10.191,-20.477 19.149,-29.435c8.959,-8.958 17.487,-14.506 29.436,-19.15c9.021,-3.505 22.576,-7.675 47.535,-8.814c26.995,-1.232 35.092,-1.492 103.447,-1.492Z" style="fill:url(#_Linear1);fill-rule:nonzero;"/><path d="M256,341.332c-47.129,0 -85.334,-38.205 -85.334,-85.332c0,-47.129 38.205,-85.334 85.334,-85.334c47.127,0 85.332,38.205 85.332,85.334c0,47.127 -38.205,85.332 -85.332,85.332Zm0,-216.792c-72.604,0 -131.46,58.856 -131.46,131.46c0,72.602 58.856,131.458 131.46,131.458c72.602,0 131.458,-58.856 131.458,-131.458c0,-72.604 -58.856,-131.46 -131.458,-131.46Z" style="fill:url(#_Linear2);fill-rule:nonzero;"/><path d="M423.372,119.346c0,16.967 -13.754,30.72 -30.72,30.72c-16.966,0 -30.72,-13.753 -30.72,-30.72c0,-16.966 13.754,-30.719 30.72,-30.719c16.966,0 30.72,13.753 30.72,30.719Z" style="fill:url(#_Linear3);fill-rule:nonzero;"/></g><defs><linearGradient gradientTransform="matrix(-149.618,494.3,-494.3,-149.618,300.81,-27.1283)" gradientUnits="userSpaceOnUse" id="_Linear1" x1="0" x2="1" y1="0" y2="0"><stop offset="0" style="stop-color:#515bd4;stop-opacity:1"/><stop offset="0.26" style="stop-color:#9510b8;stop-opacity:1"/><stop offset="0.66" style="stop-color:#e51804;stop-opacity:1"/><stop offset="1" style="stop-color:#feda77;stop-opacity:1"/></linearGradient><linearGradient gradientTransform="matrix(-149.618,494.3,-494.3,-149.618,300.81,-27.1283)" gradientUnits="userSpaceOnUse" id="_Linear2" x1="0" x2="1" y1="0" y2="0"><stop offset="0" style="stop-color:#515bd4;stop-opacity:1"/><stop offset="0.26" style="stop-color:#9510b8;stop-opacity:1"/><stop offset="0.66" style="stop-color:#e51804;stop-opacity:1"/><stop offset="1" style="stop-color:#ffbf00;stop-opacity:1"/></linearGradient><linearGradient gradientTransform="matrix(-149.618,494.3,-494.3,-149.618,300.81,-27.1283)" gradientUnits="userSpaceOnUse" id="_Linear3" x1="0" x2="1" y1="0" y2="0"><stop offset="0" style="stop-color:#515bd4;stop-opacity:1"/><stop offset="0.26" style="stop-color:#9510b8;stop-opacity:1"/><stop offset="0.66" style="stop-color:#e51804;stop-opacity:1"/><stop offset="1" style="stop-color:#ffbf00;stop-opacity:1"/></linearGradient></defs>
    </symbol>

    <symbol viewBox="0 0 32 32" id="html">
        <g><polygon fill="#E44D26" points="27.377,28.889 16.001,32 4.625,28.889 2,0 30.002,0  "/><polygon fill="#FF6C39" points="16,2 16,29.75 25.232,27.008 27.688,2  "/><polygon fill="#FFFFFF" points="24.363,6 7.607,6 8,10 8.619,17 19.503,17 19.148,20.984 16,21.99 12.857,20.984 12.648,19    8.803,19 9.262,23.987 16,25.99 22.728,23.986 23.718,13 12.252,13 12.002,10 24,10  "/></g>
    </symbol>

    <symbol viewBox="0 0 32 32" id="css">
    <g><polygon fill="#1F62AE" points="27.377,28.889 16.001,32 4.625,28.889 2,0 30.002,0  "/><polygon fill="#347DC6" points="16,2 16,29.75 25.232,27.008 27.688,2  "/><polygon fill="#FFFFFF" points="24.363,6 7.607,6 8,10 16,10 8.25,12.99 8.619,17 19.502,17 19.158,21 16,21.99 12.861,20.984    12.533,19 8.803,19 9.262,23.987 16,25.99 22.728,23.986 23.719,12.99 16.026,12.99 24,10  "/></g>
    </symbol>

    <symbol viewBox="0 0 512 512" id="js">
        <g id="_x31_87-js"><g><rect height="459.998" style="fill:#F0DB4F;" width="459.996" x="26.002" y="26.001"/><path d="M276.331,384.759c0,44.767-26.286,65.2-64.586,65.2c-34.601,0-54.623-17.865-64.892-39.529    l35.218-21.255c6.777,12.013,12.938,22.177,27.826,22.177c14.169,0,23.207-5.544,23.207-27.208V237.21h43.227V384.759    L276.331,384.759z" style="fill:#323330;"/><path d="M378.598,449.959c-40.147,0-66.124-19.099-78.754-44.151l35.219-20.332    c9.241,15.095,21.356,26.286,42.611,26.286c17.866,0,29.364-8.932,29.364-21.355c0-14.787-11.704-20.021-31.52-28.75l-10.781-4.62    c-31.214-13.246-51.853-29.983-51.853-65.2c0-32.447,24.745-57.09,63.248-57.09c27.518,0,47.232,9.549,61.402,34.603    l-33.679,21.562c-7.392-13.246-15.401-18.481-27.825-18.481c-12.63,0-20.639,8.01-20.639,18.481    c0,12.938,8.009,18.176,26.594,26.285l10.78,4.621c36.759,15.71,57.397,31.832,57.397,67.974    C450.164,428.602,419.565,449.959,378.598,449.959L378.598,449.959z" style="fill:#323330;"/></g></g>
    </symbol>

    <symbol viewBox="0 0 576 512" id="bootstrap">
        <path d="M333.5,201.4c0-22.1-15.6-34.3-43-34.3h-50.4v71.2h42.5C315.4,238.2,333.5,225,333.5,201.4z M517,188.6 c-9.5-30.9-10.9-68.8-9.8-98.1c1.1-30.5-22.7-58.5-54.7-58.5H123.7c-32.1,0-55.8,28.1-54.7,58.5c1,29.3-0.3,67.2-9.8,98.1 c-9.6,31-25.7,50.6-52.2,53.1v28.5c26.4,2.5,42.6,22.1,52.2,53.1c9.5,30.9,10.9,68.8,9.8,98.1c-1.1,30.5,22.7,58.5,54.7,58.5h328.7 c32.1,0,55.8-28.1,54.7-58.5c-1-29.3,0.3-67.2,9.8-98.1c9.6-31,25.7-50.6,52.1-53.1v-28.5C542.7,239.2,526.5,219.6,517,188.6z M300.2,375.1h-97.9V136.8h97.4c43.3,0,71.7,23.4,71.7,59.4c0,25.3-19.1,47.9-43.5,51.8v1.3c33.2,3.6,55.5,26.6,55.5,58.3 C383.4,349.7,352.1,375.1,300.2,375.1z M290.2,266.4h-50.1v78.4h52.3c34.2,0,52.3-13.7,52.3-39.5 C344.7,279.6,326.1,266.4,290.2,266.4z"/>
    </symbol>

    <symbol viewBox="0 0 24 24" id="figma">
        <path d="M8.5 2C6.84315 2 5.5 3.34315 5.5 5C5.5 6.65685 6.84315 8 8.5 8H15.5C17.1569 8 18.5 6.65685 18.5 5C18.5 3.34315 17.1569 2 15.5 2H8.5Z" fill="#ff4d12"/><path d="M15.5 9C13.8431 9 12.5 10.3431 12.5 12C12.5 13.6569 13.8431 15 15.5 15C17.1569 15 18.5 13.6569 18.5 12C18.5 10.3431 17.1569 9 15.5 9Z" fill="#00bcff"/><path d="M5.5 12C5.5 10.3431 6.84315 9 8.5 9H11.5V15H8.5C6.84315 15 5.5 13.6569 5.5 12Z" fill="#b659ff"/><path d="M8.5 16C6.84315 16 5.5 17.3431 5.5 19C5.5 20.6569 6.84315 22 8.5 22C10.1569 22 11.5 20.6569 11.5 19V16H8.5Z" fill="#00cf7f"/>
    </symbol>

     <symbol viewBox="0 0 25 25" id="github">
        <path clip-rule="evenodd" d="M15.7481 24.9471C24.0901 24.7061 24.9111 22.9501 24.9111 12.9811C24.9111 1.98108 23.9111 0.981079 12.9111 0.981079C1.91113 0.981079 0.911133 1.98108 0.911133 12.9811C0.911133 22.9761 1.73713 24.7151 10.1391 24.9491C10.2121 24.8581 10.2391 24.7441 10.2391 24.6281C10.2391 24.3781 10.2291 21.8121 10.2241 20.9291C7.18713 21.5681 6.54613 19.5101 6.54613 19.5101C6.04913 18.2881 5.33313 17.9621 5.33313 17.9621C4.34213 17.3061 5.40813 17.3191 5.40813 17.3191C6.50413 17.3941 7.08113 18.4101 7.08113 18.4101C8.05513 20.0271 9.63713 19.5601 10.2591 19.2891C10.3581 18.6061 10.6401 18.1391 10.9521 17.8751C8.52713 17.6081 5.97813 16.7001 5.97813 12.6451C5.97813 11.4901 6.40413 10.5461 7.10213 9.80608C6.98913 9.53808 6.61513 8.46208 7.20913 7.00608C7.20913 7.00608 8.12613 6.72108 10.2121 8.09008C11.0831 7.85508 12.0171 7.73808 12.9461 7.73408C13.8731 7.73808 14.8071 7.85508 15.6801 8.09008C17.7651 6.72108 18.6801 7.00608 18.6801 7.00608C19.2761 8.46208 18.9011 9.53808 18.7881 9.80608C19.4881 10.5461 19.9111 11.4901 19.9111 12.6451C19.9111 16.7101 17.3581 17.6051 14.9251 17.8661C15.3171 18.1931 15.6661 18.8391 15.6661 19.8261C15.6661 20.7721 15.6601 22.4451 15.6561 23.5541C15.6541 24.1031 15.6531 24.5131 15.6531 24.6281C15.6531 24.7371 15.6821 24.8521 15.7481 24.9471V24.9471Z" fill="black" fill-rule="evenodd"/>
    </symbol>



</svg>


